<svg width="44" height="44" viewBox="0 0 44 44" fill="none" xmlns="http://www.w3.org/2000/svg">
<path d="M30 21C30 25.97 25.97 30 21 30C16.03 30 12 25.97 12 21C12 16.03 16.03 12 21 12" stroke="white" stroke-width="1.5" stroke-linecap="round" stroke-linejoin="round"/>
<path d="M23.4999 16.13C23.1499 15.03 23.5599 13.66 24.7199 13.29C25.3299 13.09 26.0799 13.26 26.5099 13.85C26.9099 13.24 27.6899 13.1 28.2899 13.29C29.4499 13.66 29.8599 15.03 29.5099 16.13C28.9599 17.88 27.0399 18.79 26.5099 18.79C25.9699 18.79 24.0699 17.9 23.4999 16.13Z" stroke="white" stroke-width="1.5" stroke-linecap="round" stroke-linejoin="round"/>
<path d="M28.9304 30.6898C29.4604 32.2898 30.6704 32.4498 31.6004 31.0498C32.4504 29.7698 31.8904 28.7198 30.3504 28.7198C29.2104 28.7098 28.5704 29.5998 28.9304 30.6898Z" stroke="white" stroke-width="1.5" stroke-linecap="round" stroke-linejoin="round"/>
</svg>
