<svg width="44" height="44" viewBox="0 0 44 44" fill="none" xmlns="http://www.w3.org/2000/svg">
<path d="M22.1207 22.78C22.0507 22.77 21.9607 22.77 21.8807 22.78C20.1207 22.72 18.7207 21.28 18.7207 19.51C18.7207 17.7 20.1807 16.23 22.0007 16.23C23.8107 16.23 25.2807 17.7 25.2807 19.51C25.2707 21.28 23.8807 22.72 22.1207 22.78Z" stroke="white" stroke-width="1.5" stroke-linecap="round" stroke-linejoin="round"/>
<path d="M28.7398 29.38C26.9598 31.01 24.5998 32 21.9998 32C19.3998 32 17.0398 31.01 15.2598 29.38C15.3598 28.44 15.9598 27.52 17.0298 26.8C19.7698 24.98 24.2498 24.98 26.9698 26.8C28.0398 27.52 28.6398 28.44 28.7398 29.38Z" stroke="white" stroke-width="1.5" stroke-linecap="round" stroke-linejoin="round"/>
<path d="M22 32C27.5228 32 32 27.5228 32 22C32 16.4772 27.5228 12 22 12C16.4772 12 12 16.4772 12 22C12 27.5228 16.4772 32 22 32Z" stroke="white" stroke-width="1.5" stroke-linecap="round" stroke-linejoin="round"/>
</svg>
